<?xml version="1.0" encoding="UTF-8"?><svg id="a" xmlns="http://www.w3.org/2000/svg" viewBox="0 0 746.11 746.11"><rect x="0" y="359.37" width="71.87" height="27.38" rx="8" ry="8" transform="translate(71.87 746.11) rotate(180)" fill="#243543" stroke-width="0"/><rect x="674.24" y="359.37" width="71.87" height="27.38" rx="8" ry="8" transform="translate(1420.35 746.11) rotate(180)" fill="#243543" stroke-width="0"/><rect x="337.12" y="22.25" width="71.87" height="27.38" rx="8" ry="8" transform="translate(337.12 408.99) rotate(-90)" fill="#243543" stroke-width="0"/><rect x="337.12" y="696.49" width="71.87" height="27.38" rx="8" ry="8" transform="translate(-337.12 1083.23) rotate(-90)" fill="#243543" stroke-width="0"/><path d="m156.26,160.37c41.77-43.13,96.18-73.96,157.28-86.53,9.67-1.99,16.17-11.11,14.73-20.88-1.56-10.59-11.72-17.63-22.21-15.47-69.6,14.31-131.47,49.77-178.64,99.36,9.27,8.27,18.9,16.11,28.84,23.52Z" fill="#fd8524" stroke-width="0"/><path d="m55.82,324.83c.91.14,1.81.21,2.72.21,8.69,0,16.36-6.14,18.17-14.91,2.61-12.58,6.02-24.86,10.13-36.81-9.06-11.92-17.53-24.25-25.4-36.94-9.15,21.06-16.28,43.2-21.06,66.2-2.17,10.49,4.83,20.67,15.44,22.25Z" fill="#fd8524" stroke-width="0"/><path d="m422.15,53.05h0c1.56-10.59,11.72-17.62,22.2-15.46,133.12,27.36,238.03,132.07,265.68,265.09,2.18,10.49-4.83,20.67-15.43,22.24h0c-9.77,1.45-18.89-5.03-20.9-14.7-24.65-118.56-118.15-211.88-236.81-236.29-9.68-1.99-16.18-11.11-14.74-20.88Z" fill="#fd8524" stroke-width="0"/><path d="m422.45,691.77h0c1.56,10.59,11.72,17.62,22.2,15.46,133.12-27.36,238.03-132.07,265.68-265.09,2.18-10.49-4.83-20.67-15.43-22.24h0c-9.77-1.45-18.89,5.03-20.9,14.7-24.65,118.56-118.15,211.88-236.81,236.29-9.68,1.99-16.18,11.11-14.74,20.88Z" fill="#fd8524" stroke-width="0"/><path d="m631.87,252.27c-1.57-.12-3.11-.29-4.65-.5-11.77-1.54-22.88-5.25-32.91-10.73-4.07-2.22-7.96-4.72-11.62-7.51-1.2-.91-2.34-1.8-3.51-2.77-1.37-1.4-2.72-2.82-4.11-4.24-.48-.6-.99-1.18-1.54-1.8-2.77-3.23-5.75-6.33-8.97-9.19q-.07-.03-.07-.05c-2.46-2.19-4.98-4.21-7.67-6.11-15.56-11.21-34.67-17.8-55.26-17.8-46.29,0-84.84,33.18-93.09,77.09h-.07c-21.94,0-43.5-1.57-64.58-4.62C207.59,244.39,91.18,163.46,23.46,50.07c-1.23-2.05-4.4-.94-4.06,1.44,1.57,11.11,3.56,22.08,5.94,32.89.48,1.33.94,2.65,1.44,3.99.43,1.16.86,2.34,1.3,3.51.8,2.21,1.63,4.4,2.46,6.57.84,2.19,1.69,4.36,2.55,6.54.84,2.12,1.69,4.23,2.57,6.33.09.24.19.5.31.74.67,1.59,1.33,3.18,2.02,4.77.31.77.63,1.52.98,2.29.75,1.75,1.52,3.49,2.29,5.22,1.9,4.26,3.85,8.49,5.85,12.68,1.25,2.62,2.52,5.24,3.82,7.84,2.6,5.19,5.27,10.34,8.01,15.44,1.37,2.55,2.77,5.08,4.19,7.62,2.26,4.04,4.59,8.04,6.96,12.01,2.36,3.99,4.79,7.92,7.26,11.82,6.98,11.02,14.34,21.77,22.08,32.22,1.3,1.75,2.6,3.47,3.9,5.2,1.8,2.38,3.61,4.74,5.46,7.07.91,1.15,1.81,2.29,2.74,3.44.91,1.15,1.83,2.29,2.76,3.42.68.86,1.37,1.69,2.05,2.53,1.18,1.42,2.34,2.84,3.54,4.24.94,1.13,1.88,2.24,2.84,3.35.94,1.11,1.9,2.22,2.87,3.32,2.22,2.58,4.5,5.15,6.81,7.68,2.28,2.53,4.6,5.05,6.95,7.55,1.52,1.63,3.06,3.23,4.62,4.84,2.05,2.14,4.14,4.28,6.25,6.38,1.18,1.2,2.4,2.41,3.61,3.58,1.87,1.85,3.76,3.68,5.66,5.49,1.56,1.51,3.13,2.99,4.72,4.47,1.57,1.47,3.17,2.94,4.77,4.4,1.59,1.45,3.2,2.91,4.83,4.35,1.27,1.13,2.53,2.24,3.82,3.34.98.87,1.97,1.73,2.96,2.57,1.51,1.32,3.03,2.62,4.57,3.88.29.26.6.51.92.77,1.54,1.3,3.08,2.57,4.64,3.83,1.33,1.1,2.69,2.19,4.04,3.27,1.3,1.04,2.62,2.09,3.94,3.13.02,0,.03.02.07.03,1.22.96,2.43,1.92,3.66,2.86,1.4,1.08,2.79,2.14,4.21,3.2,1.63,1.25,3.27,2.46,4.93,3.68,1.37,1.01,2.74,2.02,4.12,3.01.94.68,1.9,1.37,2.84,2.04,1.49,1.06,2.99,2.12,4.5,3.17,1.69,1.18,3.41,2.36,5.12,3.53,3.94,2.69,7.91,5.3,11.93,7.87,1.83,1.18,3.68,2.34,5.53,3.49,1.4.87,2.79,1.75,4.19,2.58,2.69,1.66,5.37,3.27,8.09,4.86,3.66,2.14,7.36,4.24,11.09,6.31,1.97,1.1,3.95,2.17,5.96,3.25,1.99,1.1,3.99,2.16,6.01,3.18,2,1.04,4.02,2.09,6.04,3.11,2.69,1.35,5.37,2.69,8.08,3.99,1.39.67,2.77,1.33,4.16,1.99,1.69.82,3.39,1.61,5.1,2.4,4.07,1.85,5.89,6.66,4.12,10.75-.02.02-.02.05-.03.07-.87,1.97-1.75,3.94-2.64,5.89-23.5,51.7-56.51,98.12-96.82,137.07-40.23,38.9-87.77,70.32-140.31,92.01-.05.02-.03.09.02.09,17.97-1.28,35.73-3.37,53.24-6.19,3.92-.62,7.82-1.28,11.71-2,1.64-.29,3.29-.6,4.93-.92,1.51-.27,2.99-.56,4.48-.86,4.79-.94,9.57-1.95,14.31-3.01,2.41-.53,4.83-1.1,7.22-1.66,1.63-.38,3.25-.77,4.86-1.16,102.28-25.04,194.4-76.01,268.98-145.56,2.7-2.5,5.39-5.05,8.04-7.62,10.28-9.94,20.21-20.24,29.78-30.89.38-.38.7-.77,1.06-1.15,16.05-17.95,31.06-36.88,44.9-56.68,6.3-8.98,12.37-18.11,18.16-27.47,0-.02.03-.02.03-.05.12-.33.26-.62.38-.94,5.34-12.89,10.1-26.01,14.27-39.44,1.03-3.29,2.5-6.4,4.48-9.16.21-.26.43-.55.62-.8,4.79-6.55,10.44-12.46,16.74-17.54,5.63-4.59,11.79-8.54,18.38-11.72,9.63-4.65,20.18-7.75,31.26-8.9,1.88-.21,3.76-.36,5.7-.44,2.48-.1,4.41-2.17,4.41-4.65v-.24c-.02-2.69-2.05-4.96-4.72-5.19Z" fill="#fd8524" stroke-width="0"/><path d="m540.32,351.36c-3.59,8.71-7.46,17.32-11.57,25.77-9.63,19.95-20.62,39.12-32.84,57.41-.77,1.15-1.54,2.31-2.34,3.42-87.21,128.53-234.53,213-401.58,213-7.19,0-14.34-.17-21.44-.48-7.75-.33-9.62-10.87-2.45-13.83l.31-.12c.09,0,.17-.02.26-.02,17.97-1.28,35.73-3.37,53.24-6.19,3.92-.62,7.82-1.28,11.71-2,1.64-.29,3.29-.6,4.93-.92,1.51-.27,2.99-.56,4.48-.86,4.79-.94,9.57-1.95,14.31-3.01,2.41-.53,4.83-1.1,7.22-1.66,1.63-.38,3.25-.77,4.86-1.16,102.28-25.04,194.4-76.01,268.98-145.56,2.7-2.5,5.39-5.05,8.04-7.62,10.28-9.94,20.21-20.24,29.78-30.89.38-.38.7-.77,1.06-1.15,16.05-17.95,31.06-36.88,44.9-56.68,6.3-8.98,12.37-18.11,18.16-27.47Z" fill="#f05121" stroke-width="0"/><path d="m308.44,401.39s-.02.05-.03.07c-.87,1.97-1.75,3.94-2.64,5.89C165.22,354.68,58.22,233.47,25.34,84.4c.48,1.33.94,2.65,1.44,3.99.43,1.16.86,2.34,1.3,3.51.79,2.19,1.61,4.38,2.46,6.57.82,2.19,1.68,4.36,2.55,6.54.84,2.12,1.69,4.23,2.57,6.33.09.24.19.5.31.74.65,1.61,1.32,3.2,2.02,4.77.31.77.63,1.52.98,2.29.74,1.75,1.51,3.49,2.29,5.22,1.88,4.26,3.83,8.49,5.85,12.68,1.25,2.62,2.52,5.24,3.82,7.84,2.58,5.19,5.25,10.34,8.01,15.44,1.37,2.55,2.77,5.08,4.19,7.62,2.26,4.04,4.59,8.04,6.96,12.01,2.36,3.99,4.79,7.92,7.26,11.82,6.95,11.02,14.31,21.78,22.08,32.22,1.27,1.75,2.57,3.47,3.9,5.2,1.8,2.38,3.61,4.74,5.46,7.07.91,1.15,1.81,2.29,2.74,3.44.91,1.15,1.83,2.29,2.76,3.42.68.86,1.37,1.69,2.05,2.53,1.18,1.42,2.34,2.84,3.54,4.24.94,1.13,1.88,2.24,2.84,3.35.94,1.11,1.9,2.22,2.87,3.32,2.22,2.58,4.5,5.15,6.81,7.68,2.28,2.53,4.6,5.05,6.95,7.55,1.52,1.63,3.06,3.23,4.62,4.84,2.05,2.14,4.14,4.28,6.25,6.38,1.18,1.2,2.4,2.41,3.61,3.58,1.87,1.85,3.76,3.68,5.66,5.49,1.57,1.52,3.15,3.01,4.72,4.47,1.57,1.49,3.17,2.96,4.77,4.4,1.59,1.47,3.2,2.91,4.83,4.35,1.27,1.13,2.53,2.24,3.82,3.34.98.87,1.97,1.73,2.96,2.57,1.51,1.32,3.03,2.62,4.57,3.88.29.26.6.51.92.77,1.54,1.3,3.08,2.57,4.64,3.83,1.33,1.1,2.69,2.19,4.04,3.27,1.3,1.04,2.62,2.09,3.94,3.13.02,0,.03.02.07.03,1.22.96,2.43,1.92,3.66,2.86,1.4,1.08,2.79,2.14,4.21,3.2,1.63,1.25,3.27,2.46,4.93,3.68,1.37,1.01,2.74,2.02,4.12,3.01.94.68,1.9,1.37,2.84,2.04,1.49,1.06,2.99,2.12,4.5,3.17,1.69,1.18,3.41,2.36,5.12,3.53,3.94,2.69,7.91,5.3,11.93,7.87,1.83,1.18,3.68,2.34,5.53,3.49,1.4.87,2.79,1.75,4.19,2.58,2.69,1.66,5.37,3.27,8.09,4.86,3.66,2.16,7.36,4.26,11.09,6.31,1.97,1.1,3.95,2.17,5.96,3.25,1.99,1.1,3.99,2.16,6.01,3.18,2,1.04,4.02,2.09,6.04,3.11,2.69,1.35,5.37,2.69,8.08,3.99,1.39.67,2.77,1.33,4.16,1.99,1.69.82,3.39,1.61,5.1,2.4,4.07,1.85,5.89,6.66,4.12,10.75Z" fill="#f05121" stroke-width="0"/><path d="m76.66,434.97c-2-9.67-11.12-16.14-20.89-14.7h-.02c-10.59,1.57-17.61,11.76-15.42,22.25,11.38,54.74,35.84,104.64,69.94,146.35,10.78-6.25,21.26-12.98,31.44-20.17-31.83-37.84-54.63-83.51-65.05-133.72Z" fill="#fd8524" stroke-width="0"/><path d="m535.71,267.3c-.02.46-.07.92-.12,1.39-.09.68-.19,1.35-.33,2-.17.79-.36,1.56-.6,2.31-.12.38-.26.77-.39,1.15-.14.38-.29.75-.44,1.13-.15.38-.33.74-.5,1.1-.14.31-.29.6-.46.91-.39.75-.84,1.49-1.33,2.21-.19.31-.41.6-.62.89-.14.17-.26.34-.41.51-.19.26-.39.51-.6.75-.26.31-.53.62-.82.91-.38.41-.77.8-1.18,1.18-.29.29-.6.56-.91.82-.24.21-.5.41-.75.6-.17.15-.34.27-.51.41-.29.21-.58.43-.89.62-.72.5-1.45.94-2.21,1.33-.31.17-.6.33-.91.46-.36.17-.72.34-1.1.5-.38.15-.75.31-1.13.44-.38.14-.77.27-1.15.39-.75.24-1.52.43-2.31.6-.65.14-1.32.24-2,.33-.46.05-.92.1-1.39.12-1.11.09-2.24.09-3.39,0-.46-.02-.92-.07-1.39-.12-.05,0-.09-.02-.14-.02-.63-.09-1.25-.19-1.87-.31-.79-.17-1.56-.36-2.31-.6-.38-.12-.77-.26-1.15-.39-.38-.14-.75-.29-1.13-.44-.38-.15-.74-.33-1.1-.5-.31-.14-.6-.29-.91-.46-.77-.41-1.51-.86-2.21-1.33-.31-.19-.6-.41-.89-.62-.17-.14-.34-.27-.51-.41-.26-.19-.51-.39-.75-.6-.31-.27-.62-.55-.91-.82-.41-.38-.8-.77-1.18-1.18-.27-.29-.55-.6-.82-.91-.21-.24-.41-.5-.6-.75-.14-.17-.27-.34-.41-.51-.21-.29-.43-.58-.62-.89-.48-.7-.92-1.44-1.33-2.21-.17-.31-.33-.6-.46-.91-.17-.36-.34-.72-.5-1.1-.15-.38-.31-.75-.44-1.13-.14-.38-.27-.77-.39-1.15-.24-.75-.43-1.52-.6-2.31-.12-.62-.22-1.23-.31-1.87,0-.05-.02-.09-.02-.14-.05-.46-.1-.92-.12-1.39-.09-1.15-.09-2.28,0-3.39.02-.46.07-.92.12-1.39.09-.68.19-1.35.33-2,.17-.79.36-1.56.6-2.31.12-.38.26-.77.39-1.15.14-.38.29-.75.44-1.13.15-.38.33-.74.5-1.1.14-.31.29-.6.46-.91.39-.75.84-1.49,1.33-2.21.19-.31.41-.6.62-.89.14-.17.26-.34.41-.51.19-.26.39-.51.6-.75.26-.31.53-.62.82-.91.38-.41.77-.8,1.18-1.18.29-.29.6-.56.91-.82.24-.21.5-.41.75-.6.17-.15.34-.27.51-.41.29-.21.58-.43.89-.62.72-.5,1.45-.94,2.21-1.33.31-.17.6-.33.91-.46.36-.17.72-.34,1.1-.5.38-.15.75-.31,1.13-.44.38-.14.77-.27,1.15-.39.75-.24,1.52-.43,2.31-.6.65-.14,1.32-.24,2-.33.46-.05.92-.1,1.39-.12,1.11-.09,2.24-.09,3.39,0,.46.02.92.07,1.39.12.05,0,.09.02.14.02.63.09,1.25.19,1.87.31.79.17,1.56.36,2.31.6.38.12.77.26,1.15.39.38.14.75.29,1.13.44.38.15.74.33,1.1.5.31.14.6.29.91.46.77.41,1.51.86,2.21,1.33.31.19.6.41.89.62.17.14.34.27.51.41.26.19.51.39.75.6.31.27.62.55.91.82.41.38.8.77,1.18,1.18.27.29.55.6.82.91.21.24.41.5.6.75.14.17.27.34.41.51.21.29.43.58.62.89.48.7.92,1.44,1.33,2.21.17.31.33.6.46.91.17.36.34.72.5,1.1.15.38.31.75.44,1.13.14.38.27.77.39,1.15.24.75.43,1.52.6,2.31.12.62.22,1.23.31,1.87,0,.05.02.09.02.14.05.46.1.92.12,1.39.09,1.15.09,2.28,0,3.39Z" fill="#fff" stroke-width="0"/><path d="m631.87,252.27c-1.57-.12-3.11-.29-4.65-.5-11.77-1.54-22.88-5.25-32.91-10.73-4.07-2.22-7.96-4.72-11.62-7.51-1.2-.91-2.34-1.8-3.51-2.77-1.37-1.4-2.72-2.82-4.11-4.24-.48-.6-.99-1.18-1.54-1.8-2.77-3.23-5.75-6.33-8.97-9.19q-.07-.03-.07-.05c-2.46-2.19-4.98-4.21-7.67-6.11-15.56-11.21-34.67-17.8-55.26-17.8-46.29,0-84.84,33.18-93.09,77.09h-.07c-21.94,0-43.5-1.57-64.58-4.62C207.59,244.39,91.18,163.46,23.46,50.07c-1.23-2.05-4.4-.94-4.06,1.44,1.57,11.11,3.56,22.08,5.94,32.89.48,1.33.94,2.65,1.44,3.99.43,1.16.86,2.34,1.3,3.51.8,2.21,1.63,4.4,2.46,6.57.84,2.19,1.69,4.36,2.55,6.54.84,2.12,1.69,4.23,2.57,6.33.09.24.19.5.31.74.67,1.59,1.33,3.18,2.02,4.77.31.77.63,1.52.98,2.29.75,1.75,1.52,3.49,2.29,5.22,1.9,4.26,3.85,8.49,5.85,12.68,1.25,2.62,2.52,5.24,3.82,7.84,2.6,5.19,5.27,10.34,8.01,15.44,1.37,2.55,2.77,5.08,4.19,7.62,2.26,4.04,4.59,8.04,6.96,12.01,2.36,3.99,4.79,7.92,7.26,11.82,6.98,11.02,14.34,21.77,22.08,32.22,1.3,1.75,2.6,3.47,3.9,5.2,1.8,2.38,3.61,4.74,5.46,7.07.91,1.15,1.81,2.29,2.74,3.44.91,1.15,1.83,2.29,2.76,3.42.68.86,1.37,1.69,2.05,2.53,1.18,1.42,2.34,2.84,3.54,4.24.94,1.13,1.88,2.24,2.84,3.35.94,1.11,1.9,2.22,2.87,3.32,2.22,2.58,4.5,5.15,6.81,7.68,2.28,2.53,4.6,5.05,6.95,7.55,1.52,1.63,3.06,3.23,4.62,4.84,2.05,2.14,4.14,4.28,6.25,6.38,1.18,1.2,2.4,2.41,3.61,3.58,1.87,1.85,3.76,3.68,5.66,5.49,1.56,1.51,3.13,2.99,4.72,4.47,1.57,1.47,3.17,2.94,4.77,4.4,1.59,1.45,3.2,2.91,4.83,4.35,1.27,1.13,2.53,2.24,3.82,3.34.98.87,1.97,1.73,2.96,2.57,1.51,1.32,3.03,2.62,4.57,3.88.29.26.6.51.92.77,1.54,1.3,3.08,2.57,4.64,3.83,1.33,1.1,2.69,2.19,4.04,3.27,1.3,1.04,2.62,2.09,3.94,3.13.02,0,.03.02.07.03,1.22.96,2.43,1.92,3.66,2.86,1.4,1.08,2.79,2.14,4.21,3.2,1.63,1.25,3.27,2.46,4.93,3.68,1.37,1.01,2.74,2.02,4.12,3.01.94.68,1.9,1.37,2.84,2.04,1.49,1.06,2.99,2.12,4.5,3.17,1.69,1.18,3.41,2.36,5.12,3.53,3.94,2.69,7.91,5.3,11.93,7.87,1.83,1.18,3.68,2.34,5.53,3.49,1.4.87,2.79,1.75,4.19,2.58,2.69,1.66,5.37,3.27,8.09,4.86,3.66,2.14,7.36,4.24,11.09,6.31,1.97,1.1,3.95,2.17,5.96,3.25,1.99,1.1,3.99,2.16,6.01,3.18,2,1.04,4.02,2.09,6.04,3.11,2.69,1.35,5.37,2.69,8.08,3.99,1.39.67,2.77,1.33,4.16,1.99,1.69.82,3.39,1.61,5.1,2.4,4.07,1.85,5.89,6.66,4.12,10.75-.02.02-.02.05-.03.07-.87,1.97-1.75,3.94-2.64,5.89-23.5,51.7-56.51,98.12-96.82,137.07-40.23,38.9-87.77,70.32-140.31,92.01-.05.02-.03.09.02.09,17.97-1.28,35.73-3.37,53.24-6.19,3.92-.62,7.82-1.28,11.71-2,1.64-.29,3.29-.6,4.93-.92,1.51-.27,2.99-.56,4.48-.86,4.79-.94,9.57-1.95,14.31-3.01,2.41-.53,4.83-1.1,7.22-1.66,1.63-.38,3.25-.77,4.86-1.16,102.28-25.04,194.4-76.01,268.98-145.56,2.7-2.5,5.39-5.05,8.04-7.62,10.28-9.94,20.21-20.24,29.78-30.89.38-.38.7-.77,1.06-1.15,16.05-17.95,31.06-36.88,44.9-56.68,6.3-8.98,12.37-18.11,18.16-27.47,0-.02.03-.02.03-.05.12-.33.26-.62.38-.94,5.34-12.89,10.1-26.01,14.27-39.44,1.03-3.29,2.5-6.4,4.48-9.16.21-.26.43-.55.62-.8,4.79-6.55,10.44-12.46,16.74-17.54,5.63-4.59,11.79-8.54,18.38-11.72,9.63-4.65,20.18-7.75,31.26-8.9,1.88-.21,3.76-.36,5.7-.44,2.48-.1,4.41-2.17,4.41-4.65v-.24c-.02-2.69-2.05-4.96-4.72-5.19Z" fill="#fd8524" stroke-width="0"/><path d="m540.32,351.36c-3.59,8.71-7.46,17.32-11.57,25.77-9.63,19.95-20.62,39.12-32.84,57.41-.77,1.15-1.54,2.31-2.34,3.42-87.21,128.53-234.53,213-401.58,213-7.19,0-14.34-.17-21.44-.48-7.75-.33-9.62-10.87-2.45-13.83l.31-.12c.09,0,.17-.02.26-.02,17.97-1.28,35.73-3.37,53.24-6.19,3.92-.62,7.82-1.28,11.71-2,1.64-.29,3.29-.6,4.93-.92,1.51-.27,2.99-.56,4.48-.86,4.79-.94,9.57-1.95,14.31-3.01,2.41-.53,4.83-1.1,7.22-1.66,1.63-.38,3.25-.77,4.86-1.16,102.28-25.04,194.4-76.01,268.98-145.56,2.7-2.5,5.39-5.05,8.04-7.62,10.28-9.94,20.21-20.24,29.78-30.89.38-.38.7-.77,1.06-1.15,16.05-17.95,31.06-36.88,44.9-56.68,6.3-8.98,12.37-18.11,18.16-27.47Z" fill="#f05121" stroke-width="0"/><path d="m308.44,401.39s-.02.05-.03.07c-.87,1.97-1.75,3.94-2.64,5.89C165.22,354.68,58.22,233.47,25.34,84.4c.48,1.33.94,2.65,1.44,3.99.43,1.16.86,2.34,1.3,3.51.79,2.19,1.61,4.38,2.46,6.57.82,2.19,1.68,4.36,2.55,6.54.84,2.12,1.69,4.23,2.57,6.33.09.24.19.5.31.74.65,1.61,1.32,3.2,2.02,4.77.31.77.63,1.52.98,2.29.74,1.75,1.51,3.49,2.29,5.22,1.88,4.26,3.83,8.49,5.85,12.68,1.25,2.62,2.52,5.24,3.82,7.84,2.58,5.19,5.25,10.34,8.01,15.44,1.37,2.55,2.77,5.08,4.19,7.62,2.26,4.04,4.59,8.04,6.96,12.01,2.36,3.99,4.79,7.92,7.26,11.82,6.95,11.02,14.31,21.78,22.08,32.22,1.27,1.75,2.57,3.47,3.9,5.2,1.8,2.38,3.61,4.74,5.46,7.07.91,1.15,1.81,2.29,2.74,3.44.91,1.15,1.83,2.29,2.76,3.42.68.86,1.37,1.69,2.05,2.53,1.18,1.42,2.34,2.84,3.54,4.24.94,1.13,1.88,2.24,2.84,3.35.94,1.11,1.9,2.22,2.87,3.32,2.22,2.58,4.5,5.15,6.81,7.68,2.28,2.53,4.6,5.05,6.95,7.55,1.52,1.63,3.06,3.23,4.62,4.84,2.05,2.14,4.14,4.28,6.25,6.38,1.18,1.2,2.4,2.41,3.61,3.58,1.87,1.85,3.76,3.68,5.66,5.49,1.57,1.52,3.15,3.01,4.72,4.47,1.57,1.49,3.17,2.96,4.77,4.4,1.59,1.47,3.2,2.91,4.83,4.35,1.27,1.13,2.53,2.24,3.82,3.34.98.87,1.97,1.73,2.96,2.57,1.51,1.32,3.03,2.62,4.57,3.88.29.26.6.51.92.77,1.54,1.3,3.08,2.57,4.64,3.83,1.33,1.1,2.69,2.19,4.04,3.27,1.3,1.04,2.62,2.09,3.94,3.13.02,0,.03.02.07.03,1.22.96,2.43,1.92,3.66,2.86,1.4,1.08,2.79,2.14,4.21,3.2,1.63,1.25,3.27,2.46,4.93,3.68,1.37,1.01,2.74,2.02,4.12,3.01.94.68,1.9,1.37,2.84,2.04,1.49,1.06,2.99,2.12,4.5,3.17,1.69,1.18,3.41,2.36,5.12,3.53,3.94,2.69,7.91,5.3,11.93,7.87,1.83,1.18,3.68,2.34,5.53,3.49,1.4.87,2.79,1.75,4.19,2.58,2.69,1.66,5.37,3.27,8.09,4.86,3.66,2.16,7.36,4.26,11.09,6.31,1.97,1.1,3.95,2.17,5.96,3.25,1.99,1.1,3.99,2.16,6.01,3.18,2,1.04,4.02,2.09,6.04,3.11,2.69,1.35,5.37,2.69,8.08,3.99,1.39.67,2.77,1.33,4.16,1.99,1.69.82,3.39,1.61,5.1,2.4,4.07,1.85,5.89,6.66,4.12,10.75Z" fill="#f05121" stroke-width="0"/><path d="m313.47,671.26c-22.39-4.61-43.87-11.71-64.18-20.93-17.22,5.59-34.77,10.27-52.59,14.01,33.13,20.32,69.99,35.17,109.31,43.26,10.49,2.16,20.66-4.88,22.21-15.47,1.44-9.77-5.07-18.89-14.75-20.88Z" fill="#fd8524" stroke-width="0"/><path d="m535.71,267.3c-.02.46-.07.92-.12,1.39-.09.68-.19,1.35-.33,2-.17.79-.36,1.56-.6,2.31-.12.38-.26.77-.39,1.15-.14.38-.29.75-.44,1.13-.15.38-.33.74-.5,1.1-.14.31-.29.6-.46.91-.39.75-.84,1.49-1.33,2.21-.19.31-.41.6-.62.89-.14.17-.26.34-.41.51-.19.26-.39.51-.6.75-.26.31-.53.62-.82.91-.38.41-.77.8-1.18,1.18-.29.29-.6.56-.91.82-.24.21-.5.41-.75.6-.17.15-.34.27-.51.41-.29.21-.58.43-.89.62-.72.5-1.45.94-2.21,1.33-.31.17-.6.33-.91.46-.36.17-.72.34-1.1.5-.38.15-.75.31-1.13.44-.38.14-.77.27-1.15.39-.75.24-1.52.43-2.31.6-.65.14-1.32.24-2,.33-.46.05-.92.1-1.39.12-1.11.09-2.24.09-3.39,0-.46-.02-.92-.07-1.39-.12-.05,0-.09-.02-.14-.02-.63-.09-1.25-.19-1.87-.31-.79-.17-1.56-.36-2.31-.6-.38-.12-.77-.26-1.15-.39-.38-.14-.75-.29-1.13-.44-.38-.15-.74-.33-1.1-.5-.31-.14-.6-.29-.91-.46-.77-.41-1.51-.86-2.21-1.33-.31-.19-.6-.41-.89-.62-.17-.14-.34-.27-.51-.41-.26-.19-.51-.39-.75-.6-.31-.27-.62-.55-.91-.82-.41-.38-.8-.77-1.18-1.18-.27-.29-.55-.6-.82-.91-.21-.24-.41-.5-.6-.75-.14-.17-.27-.34-.41-.51-.21-.29-.43-.58-.62-.89-.48-.7-.92-1.44-1.33-2.21-.17-.31-.33-.6-.46-.91-.17-.36-.34-.72-.5-1.1-.15-.38-.31-.75-.44-1.13-.14-.38-.27-.77-.39-1.15-.24-.75-.43-1.52-.6-2.31-.12-.62-.22-1.23-.31-1.87,0-.05-.02-.09-.02-.14-.05-.46-.1-.92-.12-1.39-.09-1.15-.09-2.28,0-3.39.02-.46.07-.92.12-1.39.09-.68.19-1.35.33-2,.17-.79.36-1.56.6-2.31.12-.38.26-.77.39-1.15.14-.38.29-.75.44-1.13.15-.38.33-.74.5-1.1.14-.31.29-.6.46-.91.39-.75.84-1.49,1.33-2.21.19-.31.41-.6.62-.89.14-.17.26-.34.41-.51.19-.26.39-.51.6-.75.26-.31.53-.62.82-.91.38-.41.77-.8,1.18-1.18.29-.29.6-.56.91-.82.24-.21.5-.41.75-.6.17-.15.34-.27.51-.41.29-.21.58-.43.89-.62.72-.5,1.45-.94,2.21-1.33.31-.17.6-.33.91-.46.36-.17.72-.34,1.1-.5.38-.15.75-.31,1.13-.44.38-.14.77-.27,1.15-.39.75-.24,1.52-.43,2.31-.6.65-.14,1.32-.24,2-.33.46-.05.92-.1,1.39-.12,1.11-.09,2.24-.09,3.39,0,.46.02.92.07,1.39.12.05,0,.09.02.14.02.63.09,1.25.19,1.87.31.79.17,1.56.36,2.31.6.38.12.77.26,1.15.39.38.14.75.29,1.13.44.38.15.74.33,1.1.5.31.14.6.29.91.46.77.41,1.51.86,2.21,1.33.31.19.6.41.89.62.17.14.34.27.51.41.26.19.51.39.75.6.31.27.62.55.91.82.41.38.8.77,1.18,1.18.27.29.55.6.82.91.21.24.41.5.6.75.14.17.27.34.41.51.21.29.43.58.62.89.48.7.92,1.44,1.33,2.21.17.31.33.6.46.91.17.36.34.72.5,1.1.15.38.31.75.44,1.13.14.38.27.77.39,1.15.24.75.43,1.52.6,2.31.12.62.22,1.23.31,1.87,0,.05.02.09.02.14.05.46.1.92.12,1.39.09,1.15.09,2.28,0,3.39Z" fill="#fff" stroke-width="0"/><path d="m631.87,252.27c-1.57-.12-3.11-.29-4.65-.5-11.77-1.54-22.88-5.25-32.91-10.73-4.07-2.22-7.96-4.72-11.62-7.51-1.2-.91-2.34-1.8-3.51-2.77-1.37-1.4-2.72-2.82-4.11-4.24-.48-.6-.99-1.18-1.54-1.8-2.77-3.23-5.75-6.33-8.97-9.19q-.07-.03-.07-.05c-2.46-2.19-4.98-4.21-7.67-6.11-15.56-11.21-34.67-17.8-55.26-17.8-46.29,0-84.84,33.18-93.09,77.09h-.07c-21.94,0-43.5-1.57-64.58-4.62C207.59,244.39,91.18,163.46,23.46,50.07c-1.23-2.05-4.4-.94-4.06,1.44,1.57,11.11,3.56,22.08,5.94,32.89.48,1.33.94,2.65,1.44,3.99.43,1.16.86,2.34,1.3,3.51.8,2.21,1.63,4.4,2.46,6.57.84,2.19,1.69,4.36,2.55,6.54.84,2.12,1.69,4.23,2.57,6.33.09.24.19.5.31.74.67,1.59,1.33,3.18,2.02,4.77.31.77.63,1.52.98,2.29.75,1.75,1.52,3.49,2.29,5.22,1.9,4.26,3.85,8.49,5.85,12.68,1.25,2.62,2.52,5.24,3.82,7.84,2.6,5.19,5.27,10.34,8.01,15.44,1.37,2.55,2.77,5.08,4.19,7.62,2.26,4.04,4.59,8.04,6.96,12.01,2.36,3.99,4.79,7.92,7.26,11.82,6.98,11.02,14.34,21.77,22.08,32.22,1.3,1.75,2.6,3.47,3.9,5.2,1.8,2.38,3.61,4.74,5.46,7.07.91,1.15,1.81,2.29,2.74,3.44.91,1.15,1.83,2.29,2.76,3.42.68.86,1.37,1.69,2.05,2.53,1.18,1.42,2.34,2.84,3.54,4.24.94,1.13,1.88,2.24,2.84,3.35.94,1.11,1.9,2.22,2.87,3.32,2.22,2.58,4.5,5.15,6.81,7.68,2.28,2.53,4.6,5.05,6.95,7.55,1.52,1.63,3.06,3.23,4.62,4.84,2.05,2.14,4.14,4.28,6.25,6.38,1.18,1.2,2.4,2.41,3.61,3.58,1.87,1.85,3.76,3.68,5.66,5.49,1.56,1.51,3.13,2.99,4.72,4.47,1.57,1.47,3.17,2.94,4.77,4.4,1.59,1.45,3.2,2.91,4.83,4.35,1.27,1.13,2.53,2.24,3.82,3.34.98.87,1.97,1.73,2.96,2.57,1.51,1.32,3.03,2.62,4.57,3.88.29.26.6.51.92.77,1.54,1.3,3.08,2.57,4.64,3.83,1.33,1.1,2.69,2.19,4.04,3.27,1.3,1.04,2.62,2.09,3.94,3.13.02,0,.03.02.07.03,1.22.96,2.43,1.92,3.66,2.86,1.4,1.08,2.79,2.14,4.21,3.2,1.63,1.25,3.27,2.46,4.93,3.68,1.37,1.01,2.74,2.02,4.12,3.01.94.68,1.9,1.37,2.84,2.04,1.49,1.06,2.99,2.12,4.5,3.17,1.69,1.18,3.41,2.36,5.12,3.53,3.94,2.69,7.91,5.3,11.93,7.87,1.83,1.18,3.68,2.34,5.53,3.49,1.4.87,2.79,1.75,4.19,2.58,2.69,1.66,5.37,3.27,8.09,4.86,3.66,2.14,7.36,4.24,11.09,6.31,1.97,1.1,3.95,2.17,5.96,3.25,1.99,1.1,3.99,2.16,6.01,3.18,2,1.04,4.02,2.09,6.04,3.11,2.69,1.35,5.37,2.69,8.08,3.99,1.39.67,2.77,1.33,4.16,1.99,1.69.82,3.39,1.61,5.1,2.4,4.07,1.85,5.89,6.66,4.12,10.75-.02.02-.02.05-.03.07-.87,1.97-1.75,3.94-2.64,5.89-23.5,51.7-56.51,98.12-96.82,137.07-40.23,38.9-87.77,70.32-140.31,92.01-.05.02-.03.09.02.09,17.97-1.28,35.73-3.37,53.24-6.19,3.92-.62,7.82-1.28,11.71-2,1.64-.29,3.29-.6,4.93-.92,1.51-.27,2.99-.56,4.48-.86,4.79-.94,9.57-1.95,14.31-3.01,2.41-.53,4.83-1.1,7.22-1.66,1.63-.38,3.25-.77,4.86-1.16,102.28-25.04,194.4-76.01,268.98-145.56,2.7-2.5,5.39-5.05,8.04-7.62,10.28-9.94,20.21-20.24,29.78-30.89.38-.38.7-.77,1.06-1.15,16.05-17.95,31.06-36.88,44.9-56.68,6.3-8.98,12.37-18.11,18.16-27.47,0-.02.03-.02.03-.05.12-.33.26-.62.38-.94,5.34-12.89,10.1-26.01,14.27-39.44,1.03-3.29,2.5-6.4,4.48-9.16.21-.26.43-.55.62-.8,4.79-6.55,10.44-12.46,16.74-17.54,5.63-4.59,11.79-8.54,18.38-11.72,9.63-4.65,20.18-7.75,31.26-8.9,1.88-.21,3.76-.36,5.7-.44,2.48-.1,4.41-2.17,4.41-4.65v-.24c-.02-2.69-2.05-4.96-4.72-5.19Z" fill="#fd8524" stroke-width="0"/><path d="m540.32,351.36c-3.59,8.71-7.46,17.32-11.57,25.77-9.63,19.95-20.62,39.12-32.84,57.41-.77,1.15-1.54,2.31-2.34,3.42-87.21,128.53-234.53,213-401.58,213-7.19,0-14.34-.17-21.44-.48-7.75-.33-9.62-10.87-2.45-13.83l.31-.12c.09,0,.17-.02.26-.02,17.97-1.28,35.73-3.37,53.24-6.19,3.92-.62,7.82-1.28,11.71-2,1.64-.29,3.29-.6,4.93-.92,1.51-.27,2.99-.56,4.48-.86,4.79-.94,9.57-1.95,14.31-3.01,2.41-.53,4.83-1.1,7.22-1.66,1.63-.38,3.25-.77,4.86-1.16,102.28-25.04,194.4-76.01,268.98-145.56,2.7-2.5,5.39-5.05,8.04-7.62,10.28-9.94,20.21-20.24,29.78-30.89.38-.38.7-.77,1.06-1.15,16.05-17.95,31.06-36.88,44.9-56.68,6.3-8.98,12.37-18.11,18.16-27.47Z" fill="#f05121" stroke-width="0"/><path d="m308.44,401.39s-.02.05-.03.07c-.87,1.97-1.75,3.94-2.64,5.89C165.22,354.68,58.22,233.47,25.34,84.4c.48,1.33.94,2.65,1.44,3.99.43,1.16.86,2.34,1.3,3.51.79,2.19,1.61,4.38,2.46,6.57.82,2.19,1.68,4.36,2.55,6.54.84,2.12,1.69,4.23,2.57,6.33.09.24.19.5.31.74.65,1.61,1.32,3.2,2.02,4.77.31.77.63,1.52.98,2.29.74,1.75,1.51,3.49,2.29,5.22,1.88,4.26,3.83,8.49,5.85,12.68,1.25,2.62,2.52,5.24,3.82,7.84,2.58,5.19,5.25,10.34,8.01,15.44,1.37,2.55,2.77,5.08,4.19,7.62,2.26,4.04,4.59,8.04,6.96,12.01,2.36,3.99,4.79,7.92,7.26,11.82,6.95,11.02,14.31,21.78,22.08,32.22,1.27,1.75,2.57,3.47,3.9,5.2,1.8,2.38,3.61,4.74,5.46,7.07.91,1.15,1.81,2.29,2.74,3.44.91,1.15,1.83,2.29,2.76,3.42.68.86,1.37,1.69,2.05,2.53,1.18,1.42,2.34,2.84,3.54,4.24.94,1.13,1.88,2.24,2.84,3.35.94,1.11,1.9,2.22,2.87,3.32,2.22,2.58,4.5,5.15,6.81,7.68,2.28,2.53,4.6,5.05,6.95,7.55,1.52,1.63,3.06,3.23,4.62,4.84,2.05,2.14,4.14,4.28,6.25,6.38,1.18,1.2,2.4,2.41,3.61,3.58,1.87,1.85,3.76,3.68,5.66,5.49,1.57,1.52,3.15,3.01,4.72,4.47,1.57,1.49,3.17,2.96,4.77,4.4,1.59,1.47,3.2,2.91,4.83,4.35,1.27,1.13,2.53,2.24,3.82,3.34.98.87,1.97,1.73,2.96,2.57,1.51,1.32,3.03,2.62,4.57,3.88.29.26.6.51.92.77,1.54,1.3,3.08,2.57,4.64,3.83,1.33,1.1,2.69,2.19,4.04,3.27,1.3,1.04,2.62,2.09,3.94,3.13.02,0,.03.02.07.03,1.22.96,2.43,1.92,3.66,2.86,1.4,1.08,2.79,2.14,4.21,3.2,1.63,1.25,3.27,2.46,4.93,3.68,1.37,1.01,2.74,2.02,4.12,3.01.94.68,1.9,1.37,2.84,2.04,1.49,1.06,2.99,2.12,4.5,3.17,1.69,1.18,3.41,2.36,5.12,3.53,3.94,2.69,7.91,5.3,11.93,7.87,1.83,1.18,3.68,2.34,5.53,3.49,1.4.87,2.79,1.75,4.19,2.58,2.69,1.66,5.37,3.27,8.09,4.86,3.66,2.16,7.36,4.26,11.09,6.31,1.97,1.1,3.95,2.17,5.96,3.25,1.99,1.1,3.99,2.16,6.01,3.18,2,1.04,4.02,2.09,6.04,3.11,2.69,1.35,5.37,2.69,8.08,3.99,1.39.67,2.77,1.33,4.16,1.99,1.69.82,3.39,1.61,5.1,2.4,4.07,1.85,5.89,6.66,4.12,10.75Z" fill="#f05121" stroke-width="0"/><path d="m535.71,267.3c-.02.46-.07.92-.12,1.39-.09.68-.19,1.35-.33,2-.17.79-.36,1.56-.6,2.31-.12.38-.26.77-.39,1.15-.14.38-.29.75-.44,1.13-.15.38-.33.74-.5,1.1-.14.31-.29.6-.46.91-.39.75-.84,1.49-1.33,2.21-.19.31-.41.6-.62.89-.14.17-.26.34-.41.51-.19.26-.39.51-.6.75-.26.31-.53.62-.82.91-.38.41-.77.8-1.18,1.18-.29.29-.6.56-.91.82-.24.21-.5.41-.75.6-.17.15-.34.27-.51.41-.29.21-.58.43-.89.62-.72.5-1.45.94-2.21,1.33-.31.17-.6.33-.91.46-.36.17-.72.34-1.1.5-.38.15-.75.31-1.13.44-.38.14-.77.27-1.15.39-.75.24-1.52.43-2.31.6-.65.14-1.32.24-2,.33-.46.05-.92.1-1.39.12-1.11.09-2.24.09-3.39,0-.46-.02-.92-.07-1.39-.12-.05,0-.09-.02-.14-.02-.63-.09-1.25-.19-1.87-.31-.79-.17-1.56-.36-2.31-.6-.38-.12-.77-.26-1.15-.39-.38-.14-.75-.29-1.13-.44-.38-.15-.74-.33-1.1-.5-.31-.14-.6-.29-.91-.46-.77-.41-1.51-.86-2.21-1.33-.31-.19-.6-.41-.89-.62-.17-.14-.34-.27-.51-.41-.26-.19-.51-.39-.75-.6-.31-.27-.62-.55-.91-.82-.41-.38-.8-.77-1.18-1.18-.27-.29-.55-.6-.82-.91-.21-.24-.41-.5-.6-.75-.14-.17-.27-.34-.41-.51-.21-.29-.43-.58-.62-.89-.48-.7-.92-1.44-1.33-2.21-.17-.31-.33-.6-.46-.91-.17-.36-.34-.72-.5-1.1-.15-.38-.31-.75-.44-1.13-.14-.38-.27-.77-.39-1.15-.24-.75-.43-1.52-.6-2.31-.12-.62-.22-1.23-.31-1.87,0-.05-.02-.09-.02-.14-.05-.46-.1-.92-.12-1.39-.09-1.15-.09-2.28,0-3.39.02-.46.07-.92.12-1.39.09-.68.19-1.35.33-2,.17-.79.36-1.56.6-2.31.12-.38.26-.77.39-1.15.14-.38.29-.75.44-1.13.15-.38.33-.74.5-1.1.14-.31.29-.6.46-.91.39-.75.84-1.49,1.33-2.21.19-.31.41-.6.62-.89.14-.17.26-.34.41-.51.19-.26.39-.51.6-.75.26-.31.53-.62.82-.91.38-.41.77-.8,1.18-1.18.29-.29.6-.56.91-.82.24-.21.5-.41.75-.6.17-.15.34-.27.51-.41.29-.21.58-.43.89-.62.72-.5,1.45-.94,2.21-1.33.31-.17.6-.33.91-.46.36-.17.72-.34,1.1-.5.38-.15.75-.31,1.13-.44.38-.14.77-.27,1.15-.39.75-.24,1.52-.43,2.31-.6.65-.14,1.32-.24,2-.33.46-.05.92-.1,1.39-.12,1.11-.09,2.24-.09,3.39,0,.46.02.92.07,1.39.12.05,0,.09.02.14.02.63.09,1.25.19,1.87.31.79.17,1.56.36,2.31.6.38.12.77.26,1.15.39.38.14.75.29,1.13.44.38.15.74.33,1.1.5.31.14.6.29.91.46.77.41,1.51.86,2.21,1.33.31.19.6.41.89.62.17.14.34.27.51.41.26.19.51.39.75.6.31.27.62.55.91.82.41.38.8.77,1.18,1.18.27.29.55.6.82.91.21.24.41.5.6.75.14.17.27.34.41.51.21.29.43.58.62.89.48.7.92,1.44,1.33,2.21.17.31.33.6.46.91.17.36.34.72.5,1.1.15.38.31.75.44,1.13.14.38.27.77.39,1.15.24.75.43,1.52.6,2.31.12.62.22,1.23.31,1.87,0,.05.02.09.02.14.05.46.1.92.12,1.39.09,1.15.09,2.28,0,3.39Z" fill="#fff" stroke-width="0"/><path d="m277.71,223.96c19.74,6.37,40.02,11.26,60.76,14.69l-62.06-74.07c-5.24-6.25-12.29-2.77-10.55,5.2l11.84,54.19Z" fill="#243543" stroke-width="0"/><path d="m466.57,510.95c-10.93,11.86-22.36,23.16-34.27,33.86l40.16,47.63c5.23,6.21,12.25,2.75,10.54-5.19l-16.43-76.3Z" fill="#243543" stroke-width="0"/></svg>